<svg width="31" height="31" viewBox="0 0 31 31" fill="none" xmlns="http://www.w3.org/2000/svg">
<path d="M15.5 0C6.9375 0 0 6.9375 0 15.5C0 24.0625 6.9375 31 15.5 31C24.0625 31 31 24.0625 31 15.5C31 6.9375 24.0625 0 15.5 0ZM9.5 12.9125L7.70625 14.7063C6.78125 15.6313 5.34375 14.2375 6.29375 13.2937L8.0875 11.5L6.29375 9.70625C5.35625 8.76875 6.775 7.35625 7.70625 8.29375L9.5 10.0875L11.2937 8.29375C12.2312 7.35625 13.6438 8.775 12.7063 9.70625L10.9125 11.5L12.7063 13.2937C13.6563 14.2437 12.2125 15.6313 11.2937 14.7063L9.5 12.9125ZM15.5 25.5C13.2938 25.5 11.5 23.7062 11.5 21.5C11.5 19.2938 13.2938 17.5 15.5 17.5C17.7062 17.5 19.5 19.2938 19.5 21.5C19.5 23.7062 17.7062 25.5 15.5 25.5ZM24.7062 13.2937C25.6562 14.2437 24.2125 15.6313 23.2938 14.7063L21.5 12.9125L19.7062 14.7063C18.7812 15.6313 17.3438 14.2375 18.2938 13.2937L20.0875 11.5L18.2938 9.70625C17.3563 8.76875 18.775 7.35625 19.7062 8.29375L21.5 10.0875L23.2938 8.29375C24.2313 7.35625 25.6437 8.775 24.7062 9.70625L22.9125 11.5L24.7062 13.2937Z" fill="black"/>
</svg>
