<svg width="22" height="24" viewBox="0 0 22 24" fill="none" xmlns="http://www.w3.org/2000/svg">
<path d="M21.1548 3.58398e-07H19.1177C19.0478 -8.56237e-05 18.9787 0.0153 18.9145 0.0452243C18.8503 0.0751486 18.7923 0.118988 18.7441 0.174084C18.6959 0.229181 18.6584 0.294386 18.634 0.365746C18.6096 0.437105 18.5987 0.513133 18.602 0.589219L18.7739 4.46859C17.7746 3.18398 16.5307 2.1523 15.1288 1.44535C13.7269 0.7384 12.2007 0.373145 10.6563 0.375C4.78414 0.375 -0.00429399 5.60297 2.88957e-06 12.0089C0.00429977 18.4252 4.77383 23.625 10.6563 23.625C13.295 23.6291 15.8406 22.5611 17.7968 20.6292C17.8491 20.5782 17.8912 20.5161 17.9207 20.4467C17.9502 20.3773 17.9664 20.302 17.9684 20.2255C17.9703 20.1491 17.9579 20.073 17.932 20.0019C17.906 19.9308 17.867 19.8663 17.8174 19.8122L16.3565 18.2184C16.264 18.1176 16.1399 18.0588 16.0092 18.0541C15.8786 18.0493 15.7511 18.0988 15.6527 18.1927C14.4983 19.3006 13.0618 19.9984 11.5346 20.193C10.0074 20.3876 8.46216 20.0697 7.1048 19.2818C5.74745 18.4939 4.6425 17.2733 3.93724 15.7828C3.23199 14.2924 2.95995 12.6028 3.15738 10.9393C3.35481 9.27589 4.01233 7.71761 5.0423 6.47223C6.07226 5.22685 7.42573 4.35355 8.92228 3.96873C10.4188 3.58392 11.9873 3.70588 13.4187 4.31836C14.8501 4.93083 16.0763 6.00473 16.934 7.39688L12.5714 7.16859C12.5016 7.16498 12.4319 7.17685 12.3665 7.20349C12.3011 7.23014 12.2413 7.271 12.1908 7.32359C12.1403 7.37619 12.1001 7.43943 12.0727 7.50948C12.0453 7.57953 12.0312 7.65492 12.0313 7.73109V9.95344C12.0313 10.1026 12.0856 10.2457 12.1823 10.3512C12.279 10.4567 12.4101 10.5159 12.5469 10.5159H21.1548C21.2916 10.5159 21.4227 10.4567 21.5194 10.3512C21.6161 10.2457 21.6704 10.1026 21.6704 9.95344V0.5625C21.6704 0.413316 21.6161 0.270242 21.5194 0.164753C21.4227 0.0592636 21.2916 3.58398e-07 21.1548 3.58398e-07V3.58398e-07Z" fill="black"/>
</svg>
