<svg width="35" height="24" viewBox="0 0 35 24" fill="none" xmlns="http://www.w3.org/2000/svg">
<path d="M14.6992 0.44037L8.6173 5.9998H1.64061C0.734172 5.9998 0 6.67105 0 7.49981V16.4999C0 17.328 0.734172 17.9999 1.64061 17.9999H8.6173L14.6992 23.5593C15.7266 24.4987 17.4998 23.8387 17.4998 22.4987V1.501C17.4998 0.159742 15.7252 -0.497764 14.6992 0.44037ZM31.5571 11.9999L34.677 9.14733C35.1077 8.75357 35.1077 8.11482 34.677 7.72106L33.1171 6.2948C32.6864 5.90105 31.9878 5.90105 31.5571 6.2948L28.4372 9.14733L25.3173 6.2948C24.8867 5.90105 24.188 5.90105 23.7574 6.2948L22.1974 7.72106C21.7668 8.11482 21.7668 8.75357 22.1974 9.14733L25.3173 11.9999L22.1981 14.8518C21.7675 15.2455 21.7675 15.8843 22.1981 16.278L23.7581 17.7043C24.1887 18.098 24.8874 18.098 25.318 17.7043L28.4372 14.8524L31.5571 17.7049C31.9878 18.0987 32.6864 18.0987 33.1171 17.7049L34.677 16.2786C35.1077 15.8849 35.1077 15.2461 34.677 14.8524L31.5571 11.9999Z" fill="black"/>
</svg>
