<svg width="32" height="29" viewBox="0 0 32 29" fill="none" xmlns="http://www.w3.org/2000/svg">
<path d="M30.9958 6.33993L25.0042 0.910069C24.3612 0.327366 23.4892 4.30907e-06 22.5799 0H3.42857C1.535 0 0 1.39109 0 3.10714V25.8929C0 27.6089 1.535 29 3.42857 29H28.5714C30.465 29 32 27.6089 32 25.8929V8.537C32 7.71294 31.6388 6.92263 30.9958 6.33993V6.33993ZM16 24.8571C13.4753 24.8571 11.4286 23.0023 11.4286 20.7143C11.4286 18.4263 13.4753 16.5714 16 16.5714C18.5247 16.5714 20.5714 18.4263 20.5714 20.7143C20.5714 23.0023 18.5247 24.8571 16 24.8571ZM22.8571 5.14491V11.6518C22.8571 12.0808 22.4734 12.4286 22 12.4286H5.42857C4.95521 12.4286 4.57143 12.0808 4.57143 11.6518V4.91964C4.57143 4.49066 4.95521 4.14286 5.42857 4.14286H21.7514C21.9788 4.14286 22.1968 4.22468 22.3575 4.37039L22.6061 4.59566C22.6857 4.66778 22.7488 4.7534 22.7919 4.84765C22.835 4.94189 22.8572 5.0429 22.8571 5.14491V5.14491Z" fill="black"/>
</svg>
