<svg width="26" height="24" viewBox="0 0 26 24" fill="none" xmlns="http://www.w3.org/2000/svg">
<g clip-path="url(#clip0)">
<path d="M24.6685 8.03953L17.5685 7.04062L14.3956 0.834844C14.1104 0.280312 13.554 0 12.9976 0C12.4446 0 11.8921 0.276562 11.6059 0.834844L8.43209 7.04016L1.33156 8.03812C0.0582418 8.21625 -0.452057 9.72984 0.47104 10.597L5.6075 15.4252L4.3919 22.2445C4.21921 23.2186 5.02395 24 5.92522 24C6.16436 24 6.41029 23.9452 6.64653 23.8242L12.9986 20.6048L19.3501 23.8252C19.5859 23.9447 19.8313 23.9991 20.0695 23.9991C20.9717 23.9991 21.7779 23.2205 21.6053 22.2459L20.3911 15.4261L25.5285 10.5989C26.4521 9.73172 25.9418 8.21766 24.6685 8.03953V8.03953ZM18.7632 13.8145L17.8842 14.6405L18.0919 15.8067L19.0387 21.1247L14.0847 18.6127L12.9991 18.0623L13.0005 3.19406L15.4759 8.03578L16.0182 9.09656L17.2313 9.26719L22.7723 10.0467L18.7632 13.8145V13.8145Z" fill="black"/>
</g>
<defs>
<clipPath id="clip0">
<rect width="26" height="24" fill="white"/>
</clipPath>
</defs>
</svg>
