<svg width="50" height="56" viewBox="0 0 50 56" fill="none" xmlns="http://www.w3.org/2000/svg">
<path d="M49.997 33.25C49.997 45.8172 38.8078 56 24.9985 56C11.1892 56 0 45.8172 0 33.25C0 21.875 9.17012 12.4469 21.1526 10.7734V7H17.7874C16.9942 7 16.3452 6.40937 16.3452 5.6875V1.3125C16.3452 0.590625 16.9942 0 17.7874 0H32.2096C33.0028 0 33.6518 0.590625 33.6518 1.3125V5.6875C33.6518 6.40937 33.0028 7 32.2096 7H28.8444V10.7734C33.3514 11.4078 37.4617 13.1359 40.8269 15.6516L44.132 12.6437C44.6968 12.1297 45.6102 12.1297 46.1751 12.6437L49.5763 15.7391C50.1412 16.2531 50.1412 17.0844 49.5763 17.5984L46.0429 20.8141L45.9708 20.8797C48.5187 24.4234 49.997 28.6781 49.997 33.25ZM28.8444 37.1875V20.6172C28.8444 19.8953 28.1954 19.3047 27.4022 19.3047H22.5948C21.8016 19.3047 21.1526 19.8953 21.1526 20.6172V37.1875C21.1526 37.9094 21.8016 38.5 22.5948 38.5H27.4022C28.1954 38.5 28.8444 37.9094 28.8444 37.1875Z" fill="#2B1359"/>
</svg>
