<svg width="35" height="31" viewBox="0 0 35 31" fill="none" xmlns="http://www.w3.org/2000/svg">
<path d="M13.0661 3.55544L7.6599 9.29986H1.45833C0.652604 9.29986 0 9.99346 0 10.8498V20.1494C0 21.005 0.652604 21.6993 1.45833 21.6993H7.6599L13.0661 27.4437C13.9793 28.4143 15.5556 27.7324 15.5556 26.3478V4.65137C15.5556 3.26548 13.9781 2.58609 13.0661 3.55544ZM27.2435 0.256683C26.5648 -0.216691 25.6527 -0.0171373 25.2073 0.705516C24.7613 1.42688 24.9509 2.39623 25.6296 2.8696C29.6564 5.6782 32.0596 10.3997 32.0596 15.5002C32.0596 20.6008 29.6564 25.3222 25.6296 28.1308C24.9509 28.6036 24.7613 29.5736 25.2073 30.2943C25.6351 30.9859 26.5398 31.2346 27.2435 30.7431C32.0997 27.3552 35 21.656 35 15.4996C35 9.34313 32.0997 3.64457 27.2435 0.256683ZM29.1667 15.4996C29.1667 11.3968 27.2186 7.62465 23.9549 5.40955C23.275 4.94844 22.3733 5.16285 21.9424 5.89131C21.5116 6.61978 21.7128 7.58396 22.3927 8.04571C24.8081 9.68541 26.25 12.4714 26.25 15.4996C26.25 18.5277 24.8081 21.3137 22.3927 22.9534C21.7128 23.4145 21.5116 24.3787 21.9424 25.1078C22.338 25.7769 23.2258 26.0856 23.9549 25.5896C27.2186 23.3745 29.1667 19.603 29.1667 15.4996ZM20.5522 10.5353C19.8485 10.1265 18.9608 10.3958 18.5707 11.1456C18.1824 11.8953 18.4394 12.8376 19.1449 13.2515C19.9293 13.7094 20.4167 14.5716 20.4167 15.4996C20.4167 16.4282 19.9293 17.2897 19.1455 17.7476C18.44 18.1616 18.183 19.1038 18.5713 19.8536C18.962 20.6066 19.8503 20.8739 20.5528 20.4639C22.2681 19.4596 23.3339 17.5577 23.3339 15.4989C23.3339 13.4401 22.2681 11.5389 20.5522 10.5353Z" fill="black"/>
</svg>
